<?xml version="1.0" standalone="no"?>
<!DOCTYPE svg PUBLIC "-//W3C//DTD SVG 20010904//EN"
 "http://www.w3.org/TR/2001/REC-SVG-20010904/DTD/svg10.dtd">
<svg version="1.0" xmlns="http://www.w3.org/2000/svg"
 width="629.000000pt" height="629.000000pt" viewBox="0 0 629.000000 629.000000"
 preserveAspectRatio="xMidYMid meet">
<metadata>
Created by potrace 1.14, written by Peter Selinger 2001-2017
</metadata>
<g transform="translate(0.000000,629.000000) scale(0.100000,-0.100000)"
fill="#000000" stroke="none">
<path d="M1030 3809 c-19 -5 -43 -11 -53 -14 -35 -8 -136 -68 -175 -104 -23
-20 -59 -59 -79 -86 l-38 -50 -77 1 c-179 4 -358 -107 -446 -274 -47 -90 -66
-178 -59 -269 19 -244 178 -429 412 -482 60 -14 152 -16 640 -15 504 1 577 3
634 18 181 48 316 173 374 345 21 64 30 202 16 258 -5 21 -11 46 -14 56 -5 21
-49 113 -67 141 -28 42 -115 124 -163 152 -86 51 -142 68 -244 71 -88 3 -121
12 -121 35 0 18 -95 111 -148 145 -88 57 -164 79 -267 80 -50 0 -106 -4 -125
-8z m216 -271 c22 -10 56 -31 75 -47 l34 -29 -48 -49 c-97 -100 -143 -195
-161 -330 l-5 -43 59 -1 c33 0 80 0 105 0 104 0 101 -2 103 32 6 75 72 165
149 201 75 36 182 29 248 -15 75 -51 118 -129 117 -216 0 -31 -2 -63 -4 -71
-10 -36 -43 -88 -77 -118 -76 -71 -31 -67 -696 -67 l-600 0 -40 24 c-52 31
-95 71 -95 88 0 7 -4 13 -8 13 -4 0 -14 17 -21 37 -44 120 4 244 117 311 42
24 121 46 123 33 0 -3 3 -17 5 -31 3 -14 6 -36 8 -50 5 -44 18 -90 25 -90 3 0
59 19 123 43 112 40 117 43 111 67 -4 14 -6 50 -6 81 2 174 201 300 359 227z"/>
<path d="M2659 3463 c-4 -76 -3 -916 1 -932 3 -13 9 -18 18 -13 9 6 12 87 12
353 1 637 2 609 -15 609 -8 0 -15 -8 -16 -17z"/>
<path d="M2712 3373 c1 -60 2 -111 5 -115 2 -4 10 -5 18 -1 12 4 15 28 15 114
0 100 -2 109 -19 109 -17 0 -19 -9 -19 -107z"/>
<path d="M2770 3371 c0 -61 4 -112 8 -115 20 -12 28 17 28 117 1 97 -1 107
-18 107 -16 0 -18 -10 -18 -109z"/>
<path d="M2826 3378 c2 -137 1 -131 21 -120 13 8 16 26 15 103 0 52 -1 100 -1
107 -1 6 -9 12 -19 12 -16 0 -17 -10 -16 -102z"/>
<path d="M2880 3372 c0 -60 3 -111 6 -115 3 -3 12 -3 20 0 11 4 14 30 14 114
0 102 -1 109 -20 109 -19 0 -20 -7 -20 -108z"/>
<path d="M2937 3473 c-3 -7 -2 -195 2 -215 0 -3 9 -4 19 -2 15 4 17 19 17 115
0 96 -2 109 -17 109 -9 0 -19 -3 -21 -7z"/>
<path d="M2990 3370 c0 -108 2 -116 33 -111 4 0 7 -26 7 -60 0 -53 -3 -62 -20
-66 -20 -5 -20 -12 -18 -311 l3 -307 62 0 c72 0 65 -13 65 125 0 120 0 119
-19 115 -17 -3 -18 15 -18 250 0 140 2 253 5 253 34 -3 35 2 33 104 0 57 -2
106 -2 111 -1 4 -30 7 -66 7 l-65 0 0 -110z"/>
<path d="M3140 3371 c0 -98 2 -109 19 -114 17 -4 19 3 20 109 1 108 0 114 -19
114 -19 0 -20 -7 -20 -109z"/>
<path d="M3199 3478 c-1 -2 -2 -49 -3 -106 -1 -71 2 -106 10 -113 25 -21 33
48 25 204 -1 13 -27 26 -32 15z"/>
<path d="M3250 3372 c0 -60 3 -111 6 -115 3 -3 12 -3 20 0 11 4 14 30 14 114
0 102 -1 109 -20 109 -19 0 -20 -7 -20 -108z"/>
<path d="M3310 3367 c0 -92 3 -114 14 -114 19 0 22 16 21 127 0 82 -3 95 -18
98 -15 3 -17 -8 -17 -111z"/>
<path d="M3365 3373 c0 -94 2 -109 17 -115 26 -11 27 -126 1 -124 -15 1 -17
-12 -18 -118 -1 -103 2 -122 17 -135 25 -22 26 -129 1 -127 -15 1 -17 -13 -18
-116 0 -65 2 -118 5 -119 33 -6 120 -2 121 6 1 6 2 73 3 150 2 122 -1 145 -17
175 -29 51 -29 247 -1 305 16 34 19 61 19 180 l-1 140 -64 3 -65 3 0 -108z"/>
<path d="M3513 3341 c0 -133 1 -139 18 -128 17 11 19 26 19 139 0 117 -2 128
-18 128 -17 0 -18 -12 -19 -139z"/>
<path d="M3570 3360 c0 -112 7 -139 27 -107 4 6 8 60 9 120 1 98 -1 107 -18
107 -16 0 -18 -10 -18 -120z"/>
<path d="M3629 3473 c-1 -5 -2 -54 -3 -110 -1 -92 0 -103 16 -103 19 0 20 2
20 125 0 94 -1 95 -17 95 -8 0 -16 -3 -16 -7z"/>
<path d="M3683 3373 c2 -89 5 -108 18 -111 13 -2 16 13 18 108 2 103 1 110
-18 110 -18 0 -19 -7 -18 -107z"/>
<path d="M3739 3478 c-1 -4 -1 -190 0 -210 1 -10 4 -17 9 -17 22 4 28 -5 27
-43 -2 -55 -14 -91 -28 -85 -9 3 -12 -25 -10 -102 1 -58 2 -111 2 -117 1 -7 9
-11 18 -10 14 1 17 -8 16 -54 -2 -80 -2 -80 -18 -80 -18 0 -16 11 -18 -128 -2
-93 0 -112 13 -113 8 0 33 -2 55 -3 22 -2 45 -1 51 1 7 3 10 42 9 116 -2 133
-1 127 -20 127 -8 0 -15 7 -15 16 0 8 -4 12 -10 9 -6 -3 -10 4 -10 17 0 18 2
20 10 8 6 -10 10 64 10 219 0 203 2 232 15 227 19 -7 18 -12 20 117 l2 107
-64 0 c-34 0 -63 -1 -64 -2z"/>
<path d="M3889 3473 c-1 -11 -1 -184 0 -205 1 -10 7 -14 19 -12 15 4 17 19 17
115 0 97 -2 109 -17 109 -10 0 -18 -3 -19 -7z"/>
<path d="M3940 3282 c0 -109 3 -201 6 -205 3 -3 12 -3 20 0 11 4 14 43 14 204
0 192 -1 199 -20 199 -19 0 -20 -7 -20 -198z"/>
<path d="M3999 3478 c-1 -2 -2 -92 -3 -200 -1 -180 0 -197 16 -202 21 -5 20
-24 22 212 1 177 0 192 -16 192 -10 0 -19 -1 -19 -2z"/>
<path d="M4050 3276 c0 -199 0 -204 20 -199 19 5 20 14 20 204 0 192 -1 199
-20 199 -19 0 -20 -7 -20 -204z"/>
<path d="M4109 3463 c0 -10 -1 -60 -2 -111 -2 -86 -1 -92 18 -92 19 0 20 7 21
110 0 100 -1 110 -18 110 -10 0 -18 -8 -19 -17z"/>
<path d="M4164 3373 c-1 -101 6 -130 28 -117 4 3 8 54 8 115 0 98 -2 109 -18
109 -15 0 -17 -12 -18 -107z"/>
<path d="M4220 3458 c1 -13 1 -27 0 -33 -1 -5 -2 -30 -2 -55 1 -25 1 -182 2
-350 0 -168 0 -309 -1 -315 -4 -31 -4 -42 3 -57 5 -9 4 -19 0 -22 -5 -3 -8
-15 -6 -28 1 -13 3 -37 3 -55 1 -25 4 -30 20 -26 18 4 18 24 18 484 0 466 0
479 -19 479 -14 0 -19 -6 -18 -22z"/>
<path d="M4330 3002 c0 -263 3 -481 6 -485 3 -3 12 -3 20 0 12 4 14 82 14 484
0 472 0 479 -20 479 -20 0 -20 -7 -20 -478z"/>
<path d="M4389 3478 c0 -2 -2 -51 -3 -110 -2 -95 0 -107 16 -111 10 -3 19 -2
19 1 4 20 5 199 1 210 -3 10 -30 18 -33 10z"/>
<path d="M4440 3372 c0 -60 3 -111 6 -115 3 -3 12 -3 20 0 11 4 14 30 14 114
0 102 -1 109 -20 109 -19 0 -20 -7 -20 -108z"/>
<path d="M4499 3463 c-4 -63 -3 -203 1 -204 3 0 12 -2 20 -4 13 -2 15 15 15
111 1 103 -1 114 -17 114 -10 0 -18 -8 -19 -17z"/>
<path d="M4554 3378 c1 -57 5 -109 9 -116 19 -28 27 5 27 109 0 99 -2 109 -18
109 -17 0 -18 -10 -18 -102z"/>
<path d="M4610 3367 c0 -103 2 -113 19 -114 17 -1 19 7 19 113 0 106 -1 114
-19 114 -18 0 -19 -8 -19 -113z"/>
<path d="M4669 3448 c-6 -192 -5 -204 20 -210 11 -2 14 20 15 107 2 121 0 135
-20 135 -9 0 -14 -12 -15 -32z"/>
<path d="M4724 3343 c1 -99 4 -137 14 -141 18 -6 17 -235 -1 -251 -19 -15 -20
-81 -1 -109 17 -26 15 -88 -2 -85 -8 2 -11 -33 -11 -117 1 -75 5 -120 12 -121
51 -5 97 -3 102 4 3 5 6 57 7 115 1 80 -2 109 -14 120 -22 22 -22 490 0 502
12 7 15 28 14 107 -1 54 -3 101 -3 106 -1 4 -27 7 -59 7 l-59 0 1 -137z"/>
<path d="M4861 3373 c0 -60 3 -111 5 -115 3 -4 11 -5 19 -1 12 4 15 28 15 114
0 103 -1 109 -20 109 -20 0 -21 -5 -19 -107z"/>
<path d="M4919 3473 c-4 -60 -1 -202 5 -211 3 -6 12 -9 19 -6 9 3 12 36 12
114 0 98 -2 110 -17 110 -10 0 -18 -3 -19 -7z"/>
<path d="M4973 3371 c-1 -99 1 -110 18 -114 18 -5 19 2 19 109 0 104 -2 114
-18 114 -17 0 -18 -11 -19 -109z"/>
<path d="M5030 3371 c0 -61 4 -112 8 -115 21 -13 28 17 29 117 0 98 -2 107
-18 107 -17 0 -19 -10 -19 -109z"/>
<path d="M5085 3370 c0 -103 3 -115 28 -111 4 1 7 -27 5 -61 -2 -48 -7 -63
-18 -63 -12 0 -15 -21 -15 -127 0 -116 1 -128 17 -128 15 0 18 -9 18 -60 0
-47 -3 -60 -15 -60 -18 0 -17 8 -19 -127 -1 -69 2 -114 9 -116 9 -2 58 -2 105
2 14 1 16 19 15 119 0 80 -4 117 -12 117 -6 0 -15 3 -19 8 -5 5 -9 420 -5 491
1 4 8 6 16 2 18 -7 17 -15 19 117 l2 107 -66 0 -66 0 1 -110z"/>
<path d="M5237 3473 c-10 -17 -4 -208 6 -215 22 -14 27 6 27 113 0 88 -3 109
-14 109 -8 0 -17 -3 -19 -7z"/>
<path d="M5290 3180 c0 -284 1 -300 18 -300 18 0 19 16 19 300 0 285 -1 300
-19 300 -17 0 -18 -15 -18 -300z"/>
<path d="M5349 3478 c-3 -11 -4 -575 -1 -585 7 -22 32 -14 33 10 0 12 1 146 1
297 0 246 -1 275 -16 278 -9 2 -16 2 -17 0z"/>
<path d="M5401 2996 c1 -440 3 -484 18 -481 14 2 16 19 17 116 1 63 -3 120 -8
126 -7 8 -7 22 0 41 6 17 10 165 10 355 0 316 -1 327 -19 327 -19 0 -20 -12
-18 -484z"/>
<path d="M5459 3458 c-1 -46 0 -494 1 -513 1 -12 8 -1 17 25 12 34 16 100 17
278 1 215 0 232 -16 232 -12 0 -18 -8 -19 -22z"/>
<path d="M5514 3305 c0 -96 3 -172 7 -168 20 23 29 90 29 209 0 122 -2 134
-18 134 -17 0 -18 -13 -18 -175z"/>
<path d="M5570 3371 c0 -61 4 -112 8 -115 21 -13 28 17 28 117 1 98 -1 107
-17 107 -17 0 -19 -10 -19 -109z"/>
<path d="M5628 3473 c-3 -7 -3 -162 1 -205 0 -10 7 -14 19 -12 15 4 17 18 16
112 -1 87 -5 108 -17 110 -8 2 -17 -1 -19 -5z"/>
<path d="M5679 3458 c-2 -56 2 -192 7 -199 2 -5 11 -6 19 -3 11 4 14 31 14
115 1 102 -1 109 -19 109 -14 0 -20 -7 -21 -22z"/>
<path d="M5735 3343 c2 -103 6 -148 18 -176 9 -22 17 -69 18 -108 1 -60 4 -69
20 -69 12 0 19 -7 19 -19 0 -11 4 -22 9 -25 5 -3 8 -48 8 -98 -2 -83 -4 -93
-19 -90 -16 3 -18 -8 -18 -118 0 -66 3 -120 8 -121 4 0 33 -2 65 -2 51 -2 57
0 57 18 6 233 0 427 -14 459 -8 20 -18 36 -21 36 -3 0 -3 -4 0 -10 3 -5 1 -10
-4 -10 -6 0 -11 13 -11 29 0 16 -9 50 -20 76 -11 26 -20 67 -20 92 0 36 4 46
20 50 18 5 20 14 20 114 l0 109 -68 0 -68 0 1 -137z"/>
<path d="M5885 3370 c0 -77 3 -111 12 -114 19 -8 22 3 23 100 2 125 2 124 -18
124 -16 0 -18 -11 -17 -110z"/>
<path d="M5940 3348 c0 -110 4 -140 20 -173 l19 -40 -1 173 c0 162 -1 172 -19
172 -18 0 -19 -9 -19 -132z"/>
<path d="M5997 3328 c2 -195 1 -189 21 -148 14 27 17 61 16 165 0 120 -2 130
-20 133 -18 3 -19 -4 -17 -150z"/>
<path d="M6053 3370 c0 -101 1 -110 18 -110 17 0 19 9 19 110 0 101 -2 110
-19 110 -17 0 -18 -9 -18 -110z"/>
<path d="M6110 3370 c0 -67 4 -110 10 -110 6 0 13 0 18 0 4 0 7 49 7 110 1 99
-1 110 -17 110 -16 0 -18 -11 -18 -110z"/>
<path d="M6168 3473 c-7 -15 -1 -198 7 -216 4 -10 3 -28 -2 -40 -7 -17 -11
-656 -4 -700 0 -4 8 -4 18 1 15 9 16 52 15 473 0 255 -1 470 -1 477 -1 13 -27
17 -33 5z"/>
<path d="M2712 2826 c0 -286 1 -314 16 -312 15 3 17 33 20 306 2 302 1 319
-30 320 -3 0 -6 -141 -6 -314z"/>
<path d="M2783 3133 c-16 -6 -19 -613 -3 -613 6 0 13 0 18 0 8 0 11 610 3 614
-3 2 -12 1 -18 -1z"/>
<path d="M2950 3130 c-13 -8 -15 -56 -15 -310 0 -294 0 -300 20 -300 20 0 20
6 19 305 0 167 -2 306 -5 309 -2 3 -11 1 -19 -4z"/>
<path d="M3203 3127 c-15 -24 -12 -47 6 -56 17 -9 19 -6 23 24 4 35 -14 56
-29 32z"/>
<path d="M3250 3099 c0 -32 3 -36 20 -32 15 4 20 14 20 39 0 27 -4 32 -20 31
-16 -1 -20 -8 -20 -38z"/>
<path d="M3323 3133 c-7 -3 -13 -18 -13 -34 0 -22 5 -29 20 -29 16 0 19 6 17
30 -4 35 -7 39 -24 33z"/>
<path d="M3682 3013 c3 -111 5 -128 20 -131 16 -3 17 9 17 120 -1 117 -6 137
-32 138 -4 0 -6 -57 -5 -127z"/>
<path d="M4505 3128 c-5 -13 -9 -69 -6 -100 0 -9 8 -15 19 -14 14 2 17 13 17
61 0 38 -4 60 -12 62 -7 3 -15 -1 -18 -9z"/>
<path d="M4563 3128 c-11 -19 -11 -102 1 -110 19 -13 26 3 26 57 0 54 -12 77
-27 53z"/>
<path d="M4919 3127 c-3 -26 4 -52 14 -59 17 -11 23 -2 22 33 0 22 -6 33 -18
35 -9 1 -18 -3 -18 -9z"/>
<path d="M4983 3133 c-22 -8 -16 -60 7 -66 17 -4 20 0 20 28 0 36 -7 45 -27
38z"/>
<path d="M5030 3104 c0 -28 4 -34 21 -34 17 0 20 5 16 32 -5 46 -37 48 -37 2z"/>
<path d="M6122 3115 c-14 -30 -17 -591 -4 -599 24 -15 28 26 28 317 0 169 -3
307 -6 307 -4 0 -12 -11 -18 -25z"/>
<path d="M3633 3118 c-9 -15 -12 -203 -4 -217 4 -5 12 -11 19 -13 11 -2 14 20
14 102 0 58 -1 113 -1 123 -1 20 -16 23 -28 5z"/>
<path d="M4610 3075 c0 -56 11 -70 30 -36 12 24 2 78 -16 85 -11 4 -14 -7 -14
-49z"/>
<path d="M3584 3065 c-18 -43 -18 -93 1 -125 8 -14 15 -20 16 -15 4 22 5 175
2 175 -2 0 -11 -16 -19 -35z"/>
<path d="M5635 3080 c-4 -14 -9 -55 -10 -92 -2 -60 0 -68 17 -68 12 0 18 8 19
23 3 48 -1 103 -9 132 l-9 30 -8 -25z"/>
<path d="M6066 2988 c-11 -34 -14 -89 -14 -258 1 -203 2 -216 20 -216 17 0 18
14 18 258 0 142 -2 258 -4 258 -2 0 -11 -19 -20 -42z"/>
<path d="M4010 2951 c-13 -5 -15 -38 -15 -218 0 -193 2 -212 18 -217 9 -2 17
1 18 7 4 45 3 410 -1 421 -3 7 -12 11 -20 7z"/>
<path d="M3195 2918 c1 -23 6 -34 18 -36 9 -2 17 2 18 10 0 7 2 23 3 36 2 17
-2 22 -19 22 -17 0 -21 -6 -20 -32z"/>
<path d="M3250 2915 c0 -28 4 -35 20 -35 16 0 20 7 20 35 0 28 -4 35 -20 35
-16 0 -20 -7 -20 -35z"/>
<path d="M3310 2915 c0 -27 4 -35 18 -35 14 0 18 8 18 35 -1 27 -5 35 -18 35
-14 0 -18 -8 -18 -35z"/>
<path d="M3942 2733 c3 -186 5 -218 18 -218 13 0 15 32 18 218 2 213 2 217
-18 217 -20 0 -20 -4 -18 -217z"/>
<path d="M4050 2731 c0 -214 0 -219 20 -214 19 5 20 14 20 219 0 207 -1 214
-20 214 -19 0 -20 -7 -20 -219z"/>
<path d="M4918 2933 c-7 -30 2 -53 21 -53 13 0 17 8 17 32 -1 36 -30 52 -38
21z"/>
<path d="M4972 2915 c-1 -29 2 -35 18 -35 16 0 20 7 20 35 0 27 -4 35 -18 35
-14 0 -19 -8 -20 -35z"/>
<path d="M5030 2915 c0 -27 4 -35 18 -35 13 0 19 9 20 35 2 29 -1 35 -18 35
-16 0 -20 -6 -20 -35z"/>
<path d="M5681 2934 c0 -11 3 -14 6 -6 3 7 2 16 -1 19 -3 4 -6 -2 -5 -13z"/>
<path d="M4690 2915 c0 -8 4 -15 10 -15 5 0 7 7 4 15 -4 8 -8 15 -10 15 -2 0
-4 -7 -4 -15z"/>
<path d="M4499 2883 c0 -10 -1 -96 -2 -191 -2 -167 -1 -172 18 -172 20 0 21 6
21 190 0 177 -1 190 -18 190 -10 0 -18 -8 -19 -17z"/>
<path d="M4555 2708 c0 -100 3 -184 8 -185 24 -9 27 6 27 161 0 142 -2 167
-18 186 -17 21 -18 16 -17 -162z"/>
<path d="M5583 2803 c-10 -3 -13 -42 -13 -148 0 -135 1 -143 19 -138 17 4 18
16 17 143 0 76 -3 140 -6 143 -3 2 -11 2 -17 0z"/>
<path d="M5634 2802 c-11 -8 -13 -276 -1 -288 4 -4 13 -2 19 4 14 14 15 269 1
283 -4 4 -13 5 -19 1z"/>
<path d="M5685 2804 c-10 -4 -10 -255 -1 -281 3 -7 12 -10 20 -7 11 4 14 33
14 144 1 136 -3 154 -33 144z"/>
<path d="M3513 2663 c0 -129 7 -161 29 -147 4 3 8 65 8 139 0 112 -2 134 -16
139 -9 3 -17 6 -19 6 -1 0 -3 -62 -2 -137z"/>
<path d="M4610 2658 c0 -138 1 -146 19 -141 16 4 18 16 19 124 0 102 -3 123
-19 142 -18 22 -18 20 -19 -125z"/>
<path d="M3570 2645 c0 -77 4 -125 10 -125 6 0 13 -1 18 -2 12 -5 10 236 -2
244 -23 16 -26 4 -26 -117z"/>
<path d="M2826 2751 c-6 -13 0 -231 7 -237 24 -24 35 72 28 227 -1 15 -29 23
-35 10z"/>
<path d="M2880 2641 c0 -65 3 -120 6 -124 3 -3 12 -3 20 0 11 4 14 31 14 122
0 110 -1 117 -20 118 -19 2 -20 -4 -20 -116z"/>
<path d="M3140 2637 c0 -121 1 -125 20 -120 19 5 20 12 18 122 -3 101 -5 116
-20 119 -16 3 -18 -8 -18 -121z"/>
<path d="M3199 2753 c-1 -5 -2 -59 -2 -120 -2 -88 1 -114 12 -118 8 -3 16 -3
19 -1 4 4 6 144 3 219 -1 17 -7 27 -16 27 -8 0 -15 -3 -16 -7z"/>
<path d="M3257 2753 c-4 -3 -7 -57 -7 -119 0 -87 3 -113 14 -117 8 -3 17 -3
20 0 3 4 6 60 6 125 0 92 -3 118 -13 118 -8 0 -17 -3 -20 -7z"/>
<path d="M3310 2640 c0 -73 4 -120 10 -120 6 0 13 -1 17 -2 12 -5 11 226 -1
234 -23 16 -26 4 -26 -112z"/>
<path d="M3629 2757 c-1 -1 -2 -51 -3 -111 -1 -82 2 -112 12 -123 8 -8 17 -12
19 -9 3 3 6 57 7 120 1 102 -1 116 -16 120 -10 2 -19 3 -19 3z"/>
<path d="M3889 2743 c-4 -67 -3 -206 1 -218 3 -10 10 -11 19 -5 11 6 14 32 13
112 0 57 -1 109 -1 116 -1 19 -31 14 -32 -5z"/>
<path d="M4109 2738 c-1 -27 -1 -186 0 -210 1 -10 8 -15 19 -14 15 3 17 16 17
122 0 105 -2 119 -17 122 -13 2 -18 -3 -19 -20z"/>
<path d="M4169 2753 c-1 -5 -2 -58 -3 -120 -2 -100 0 -112 16 -116 17 -5 18 4
18 119 0 104 -2 124 -15 124 -8 0 -16 -3 -16 -7z"/>
<path d="M4389 2743 c-5 -84 -3 -216 2 -225 6 -9 11 -9 21 -1 10 9 13 40 12
120 -1 59 -2 111 -3 116 -2 15 -31 6 -32 -10z"/>
<path d="M4440 2637 c0 -114 2 -125 18 -123 15 3 17 16 17 122 0 105 -2 119
-17 122 -16 3 -18 -8 -18 -121z"/>
<path d="M4669 2738 c-4 -106 -3 -212 3 -221 5 -8 10 -8 20 0 10 8 13 42 12
125 -1 97 -3 113 -17 116 -12 2 -17 -4 -18 -20z"/>
<path d="M4865 2752 c-3 -3 -5 -58 -5 -123 0 -106 2 -117 18 -115 15 3 17 17
20 123 2 102 0 120 -13 120 -8 0 -17 -3 -20 -5z"/>
<path d="M4919 2753 c-1 -11 -1 -205 0 -225 1 -10 7 -15 19 -11 16 4 18 16 16
116 -2 136 -1 127 -19 127 -8 0 -15 -3 -16 -7z"/>
<path d="M4977 2753 c-3 -5 -4 -58 -4 -120 0 -100 2 -112 19 -116 17 -5 18 4
18 119 0 101 -3 124 -14 124 -8 0 -17 -3 -19 -7z"/>
<path d="M5030 2638 c0 -64 4 -119 8 -122 22 -13 29 16 29 126 0 107 -2 116
-19 115 -16 -1 -18 -12 -18 -119z"/>
<path d="M5237 2753 c-10 -16 -3 -228 7 -235 21 -14 26 7 26 123 0 97 -3 119
-14 119 -8 0 -17 -3 -19 -7z"/>
<path d="M5290 2639 c0 -94 3 -118 15 -122 8 -4 16 -3 18 1 2 4 4 60 4 124 1
108 -1 116 -18 115 -17 -1 -19 -11 -19 -118z"/>
<path d="M5349 2738 c-7 -153 -3 -210 14 -219 20 -11 18 -19 19 131 1 90 -2
105 -16 108 -11 2 -16 -4 -17 -20z"/>
<path d="M5459 2743 c-1 -22 -1 -193 0 -210 1 -7 9 -13 19 -13 15 0 17 11 16
113 -1 61 -2 115 -3 120 -2 15 -31 6 -32 -10z"/>
<path d="M5519 2758 c-4 -7 -6 -234 -2 -240 2 -4 10 -5 18 -1 22 8 22 243 0
243 -8 0 -16 -1 -16 -2z"/>
<path d="M5739 2753 c-1 -5 -2 -59 -3 -120 -1 -90 1 -114 13 -118 7 -3 16 -4
18 -1 4 3 6 136 4 214 -1 21 -6 32 -16 32 -8 0 -16 -3 -16 -7z"/>
<path d="M5941 2716 c2 -25 2 -46 -1 -46 -3 0 -4 -33 -2 -74 3 -62 7 -75 22
-79 17 -4 18 3 17 116 -2 110 -4 122 -21 125 -16 3 -18 -2 -15 -42z"/>
<path d="M5998 2748 c-3 -11 -2 -181 1 -226 1 -9 6 -10 19 -3 15 8 17 23 15
113 -1 133 -1 128 -17 128 -8 0 -16 -6 -18 -12z"/>
<path d="M3680 2635 c0 -107 1 -115 20 -115 18 0 19 7 18 115 -1 105 -3 115
-20 115 -16 0 -18 -10 -18 -115z"/>
</g>
</svg>
